<svg width="26" height="26" viewBox="0 0 26 26" fill="none" xmlns="http://www.w3.org/2000/svg">
<path fill-rule="evenodd" clip-rule="evenodd" d="M4.48933 13.0019C4.48933 7.53106 9.00683 3.10022 14.521 3.25189C19.6018 3.39272 23.8485 7.63939 23.9893 12.7202C24.141 18.2344 19.7102 22.7519 14.2393 22.7519C11.9752 22.7519 9.906 21.9827 8.25933 20.6827C7.75016 20.2927 7.71766 19.5236 8.17266 19.0686C8.56266 18.6786 9.16933 18.6461 9.60266 18.9819C10.881 19.9894 12.4952 20.5852 14.2393 20.5852C18.4643 20.5852 21.8768 17.1294 21.8227 12.8936C21.7685 8.86355 18.3777 5.47272 14.3477 5.41856C10.101 5.36439 6.656 8.77689 6.656 13.0019H8.59516C9.08266 13.0019 9.321 13.5869 8.98516 13.9227L5.96266 16.9561C5.746 17.1727 5.41016 17.1727 5.1935 16.9561L2.171 13.9227C1.82433 13.5869 2.06266 13.0019 2.55016 13.0019H4.48933ZM13.156 9.48105C13.156 9.03689 13.5243 8.66855 13.9685 8.66855C14.4127 8.66855 14.781 9.03689 14.781 9.47022V13.1536L17.901 15.0061C18.2802 15.2336 18.4102 15.7319 18.1827 16.1219C17.9552 16.5011 17.4568 16.6311 17.0668 16.4036L13.6868 14.3994C13.3618 14.2044 13.156 13.8469 13.156 13.4677V9.48105Z" fill="white"/>
</svg>
